<mxfile host="app.diagrams.net" modified="2021-04-14T06:16:23.701Z" agent="5.0 (Windows NT 10.0; Win64; x64) AppleWebKit/537.36 (KHTML, like Gecko) Chrome/89.0.4389.82 Safari/537.36" etag="AGMJbmgwVZk2S1XAp0Jh" version="14.5.8" type="github">
  <diagram id="HSswA3tRzgz16QMjjiUG" name="Page-1">
    <mxGraphModel dx="1422" dy="762" grid="1" gridSize="10" guides="1" tooltips="1" connect="1" arrows="1" fold="1" page="1" pageScale="1" pageWidth="850" pageHeight="1100" math="0" shadow="0">
      <root>
        <mxCell id="0" />
        <mxCell id="1" parent="0" />
        <mxCell id="fmH8YPcWzQn2xEaA58ES-1" value="" style="edgeStyle=orthogonalEdgeStyle;rounded=0;orthogonalLoop=1;jettySize=auto;html=1;" edge="1" parent="1" source="fmH8YPcWzQn2xEaA58ES-2" target="fmH8YPcWzQn2xEaA58ES-11">
          <mxGeometry relative="1" as="geometry" />
        </mxCell>
        <mxCell id="fmH8YPcWzQn2xEaA58ES-2" value="User" style="rounded=1;whiteSpace=wrap;html=1;" vertex="1" parent="1">
          <mxGeometry x="50" y="90" width="120" height="60" as="geometry" />
        </mxCell>
        <mxCell id="fmH8YPcWzQn2xEaA58ES-3" style="edgeStyle=orthogonalEdgeStyle;rounded=0;orthogonalLoop=1;jettySize=auto;html=1;entryX=0.5;entryY=0;entryDx=0;entryDy=0;" edge="1" parent="1" source="fmH8YPcWzQn2xEaA58ES-4" target="fmH8YPcWzQn2xEaA58ES-11">
          <mxGeometry relative="1" as="geometry" />
        </mxCell>
        <mxCell id="fmH8YPcWzQn2xEaA58ES-4" value="User" style="rounded=1;whiteSpace=wrap;html=1;" vertex="1" parent="1">
          <mxGeometry x="50" y="180" width="120" height="60" as="geometry" />
        </mxCell>
        <mxCell id="fmH8YPcWzQn2xEaA58ES-5" style="edgeStyle=orthogonalEdgeStyle;rounded=0;orthogonalLoop=1;jettySize=auto;html=1;entryX=0.5;entryY=0;entryDx=0;entryDy=0;" edge="1" parent="1" source="fmH8YPcWzQn2xEaA58ES-6" target="fmH8YPcWzQn2xEaA58ES-11">
          <mxGeometry relative="1" as="geometry" />
        </mxCell>
        <mxCell id="fmH8YPcWzQn2xEaA58ES-6" value="User" style="rounded=1;whiteSpace=wrap;html=1;" vertex="1" parent="1">
          <mxGeometry x="50" y="300" width="120" height="60" as="geometry" />
        </mxCell>
        <mxCell id="fmH8YPcWzQn2xEaA58ES-7" value="..." style="text;html=1;strokeColor=none;fillColor=none;align=center;verticalAlign=middle;whiteSpace=wrap;rounded=0;rotation=-90;" vertex="1" parent="1">
          <mxGeometry x="90" y="260" width="40" height="20" as="geometry" />
        </mxCell>
        <mxCell id="fmH8YPcWzQn2xEaA58ES-8" style="edgeStyle=orthogonalEdgeStyle;rounded=0;orthogonalLoop=1;jettySize=auto;html=1;entryX=0;entryY=0.5;entryDx=0;entryDy=0;" edge="1" parent="1" source="fmH8YPcWzQn2xEaA58ES-11" target="fmH8YPcWzQn2xEaA58ES-13">
          <mxGeometry relative="1" as="geometry" />
        </mxCell>
        <mxCell id="fmH8YPcWzQn2xEaA58ES-9" style="edgeStyle=orthogonalEdgeStyle;rounded=0;orthogonalLoop=1;jettySize=auto;html=1;entryX=0;entryY=0.5;entryDx=0;entryDy=0;" edge="1" parent="1" source="fmH8YPcWzQn2xEaA58ES-11" target="fmH8YPcWzQn2xEaA58ES-15">
          <mxGeometry relative="1" as="geometry" />
        </mxCell>
        <mxCell id="fmH8YPcWzQn2xEaA58ES-10" style="edgeStyle=orthogonalEdgeStyle;rounded=0;orthogonalLoop=1;jettySize=auto;html=1;entryX=0;entryY=0.5;entryDx=0;entryDy=0;" edge="1" parent="1" source="fmH8YPcWzQn2xEaA58ES-11" target="fmH8YPcWzQn2xEaA58ES-17">
          <mxGeometry relative="1" as="geometry" />
        </mxCell>
        <mxCell id="fmH8YPcWzQn2xEaA58ES-11" value="LB" style="rounded=1;whiteSpace=wrap;html=1;rotation=-90;" vertex="1" parent="1">
          <mxGeometry x="125" y="195" width="270" height="60" as="geometry" />
        </mxCell>
        <mxCell id="fmH8YPcWzQn2xEaA58ES-12" value="" style="edgeStyle=orthogonalEdgeStyle;rounded=0;orthogonalLoop=1;jettySize=auto;html=1;" edge="1" parent="1" source="fmH8YPcWzQn2xEaA58ES-13" target="fmH8YPcWzQn2xEaA58ES-22">
          <mxGeometry relative="1" as="geometry" />
        </mxCell>
        <mxCell id="fmH8YPcWzQn2xEaA58ES-13" value="Web Server" style="rounded=1;whiteSpace=wrap;html=1;" vertex="1" parent="1">
          <mxGeometry x="340" y="90" width="120" height="60" as="geometry" />
        </mxCell>
        <mxCell id="fmH8YPcWzQn2xEaA58ES-14" style="edgeStyle=orthogonalEdgeStyle;rounded=0;orthogonalLoop=1;jettySize=auto;html=1;" edge="1" parent="1" source="fmH8YPcWzQn2xEaA58ES-15" target="fmH8YPcWzQn2xEaA58ES-22">
          <mxGeometry relative="1" as="geometry" />
        </mxCell>
        <mxCell id="fmH8YPcWzQn2xEaA58ES-15" value="Web Server" style="rounded=1;whiteSpace=wrap;html=1;" vertex="1" parent="1">
          <mxGeometry x="340" y="180" width="120" height="60" as="geometry" />
        </mxCell>
        <mxCell id="fmH8YPcWzQn2xEaA58ES-16" style="edgeStyle=orthogonalEdgeStyle;rounded=0;orthogonalLoop=1;jettySize=auto;html=1;entryX=0.5;entryY=0;entryDx=0;entryDy=0;" edge="1" parent="1" source="fmH8YPcWzQn2xEaA58ES-17" target="fmH8YPcWzQn2xEaA58ES-22">
          <mxGeometry relative="1" as="geometry" />
        </mxCell>
        <mxCell id="fmH8YPcWzQn2xEaA58ES-17" value="Web Server" style="rounded=1;whiteSpace=wrap;html=1;" vertex="1" parent="1">
          <mxGeometry x="340" y="300" width="120" height="60" as="geometry" />
        </mxCell>
        <mxCell id="fmH8YPcWzQn2xEaA58ES-18" value="..." style="text;html=1;strokeColor=none;fillColor=none;align=center;verticalAlign=middle;whiteSpace=wrap;rounded=0;rotation=-90;" vertex="1" parent="1">
          <mxGeometry x="380" y="260" width="40" height="20" as="geometry" />
        </mxCell>
        <mxCell id="fmH8YPcWzQn2xEaA58ES-19" style="edgeStyle=orthogonalEdgeStyle;rounded=0;orthogonalLoop=1;jettySize=auto;html=1;entryX=0;entryY=0.5;entryDx=0;entryDy=0;" edge="1" parent="1" source="fmH8YPcWzQn2xEaA58ES-22" target="fmH8YPcWzQn2xEaA58ES-23">
          <mxGeometry relative="1" as="geometry" />
        </mxCell>
        <mxCell id="fmH8YPcWzQn2xEaA58ES-20" style="edgeStyle=orthogonalEdgeStyle;rounded=0;orthogonalLoop=1;jettySize=auto;html=1;entryX=0;entryY=0.5;entryDx=0;entryDy=0;" edge="1" parent="1" source="fmH8YPcWzQn2xEaA58ES-22" target="fmH8YPcWzQn2xEaA58ES-24">
          <mxGeometry relative="1" as="geometry" />
        </mxCell>
        <mxCell id="fmH8YPcWzQn2xEaA58ES-21" style="edgeStyle=orthogonalEdgeStyle;rounded=0;orthogonalLoop=1;jettySize=auto;html=1;entryX=0;entryY=0.5;entryDx=0;entryDy=0;" edge="1" parent="1" source="fmH8YPcWzQn2xEaA58ES-22" target="fmH8YPcWzQn2xEaA58ES-25">
          <mxGeometry relative="1" as="geometry" />
        </mxCell>
        <mxCell id="fmH8YPcWzQn2xEaA58ES-22" value="LB" style="rounded=1;whiteSpace=wrap;html=1;rotation=-90;" vertex="1" parent="1">
          <mxGeometry x="410" y="195" width="270" height="60" as="geometry" />
        </mxCell>
        <mxCell id="fmH8YPcWzQn2xEaA58ES-23" value="APP Server" style="rounded=1;whiteSpace=wrap;html=1;" vertex="1" parent="1">
          <mxGeometry x="625" y="90" width="120" height="60" as="geometry" />
        </mxCell>
        <mxCell id="fmH8YPcWzQn2xEaA58ES-24" value="APP Server" style="rounded=1;whiteSpace=wrap;html=1;" vertex="1" parent="1">
          <mxGeometry x="625" y="180" width="120" height="60" as="geometry" />
        </mxCell>
        <mxCell id="fmH8YPcWzQn2xEaA58ES-25" value="APP Server" style="rounded=1;whiteSpace=wrap;html=1;" vertex="1" parent="1">
          <mxGeometry x="625" y="300" width="120" height="60" as="geometry" />
        </mxCell>
        <mxCell id="fmH8YPcWzQn2xEaA58ES-26" value="..." style="text;html=1;strokeColor=none;fillColor=none;align=center;verticalAlign=middle;whiteSpace=wrap;rounded=0;rotation=-90;" vertex="1" parent="1">
          <mxGeometry x="665" y="260" width="40" height="20" as="geometry" />
        </mxCell>
      </root>
    </mxGraphModel>
  </diagram>
</mxfile>
